<?xml version="1.0" encoding="iso-8859-1"?>
<!-- Uploaded to: SVG Repo, www.svgrepo.com, Generator: SVG Repo Mixer Tools -->
<svg fill="currentColor" version="1.1" id="Layer_1" xmlns="http://www.w3.org/2000/svg" xmlns:xlink="http://www.w3.org/1999/xlink" 
	 viewBox="0 0 512 512" xml:space="preserve">
<g>
	<g>
		<path d="M494.348,55.028H17.652C7.742,55.028,0,62.66,0,72.57v342.422c0,9.91,7.742,18.055,17.652,18.055h20.516
			c-0.689,2.393-1.084,3.895-1.084,6.036c0,9.911,8.034,17.889,17.944,17.889h53.832c9.91,0,17.944-7.978,17.944-17.889
			c0-2.143-0.395-3.644-1.084-6.036h260.56c-0.689,2.393-1.084,3.895-1.084,6.036c0,9.91,8.034,17.889,17.944,17.889h53.832
			c9.91,0,17.944-7.978,17.944-17.889c0-2.143-0.395-3.644-1.084-6.036h20.516c9.91,0,17.652-8.145,17.652-18.055V72.57
			C512,62.66,504.258,55.028,494.348,55.028z M476.112,397.159H35.888V90.916h440.224V397.159z"/>
	</g>
</g>
<g>
	<g>
		<path d="M445.009,327.776h-29.907c-9.91,0-17.944,8.034-17.944,17.944c0,9.91,8.034,17.944,17.944,17.944h29.907
			c9.91,0,17.944-8.034,17.944-17.944C462.953,335.81,454.919,327.776,445.009,327.776z"/>
	</g>
</g>
<g>
	<g>
		<path d="M358.878,123.215H81.346c-9.91,0-17.944,8.034-17.944,17.944V345.72c0,9.91,8.034,17.944,17.944,17.944h277.533
			c9.91,0,17.944-8.034,17.944-17.944V141.159C376.822,131.249,368.788,123.215,358.878,123.215z M340.935,327.776H99.29V159.103
			h241.645V327.776z"/>
	</g>
</g>
<g>
	<g>
		<circle cx="430.056" cy="253.225" r="19.906"/>
	</g>
</g>
<g>
	<g>
		<circle cx="430.056" cy="193.125" r="19.907"/>
	</g>
</g>
</svg>